<svg viewBox="0 0 500 360" xmlns="http://www.w3.org/2000/svg">
<style>
.symbol { stroke: black; stroke-width: 2; }
.affected { fill: black; }
.unaffected { fill: white; }
.label { font-size: 12px; font-family: Arial; }
</style>
<rect x="175.0" y="25.0" width="30" height="30" class="symbol unaffected"/>
<text x="190.0" y="70" class="label" text-anchor="middle">1</text>
<circle cx="250.0" cy="40" r="15.0" class="symbol affected"/>
<text x="250.0" y="70" class="label" text-anchor="middle">2</text>
<rect x="55.0" y="105.0" width="30" height="30" class="symbol unaffected"/>
<text x="70.0" y="150" class="label" text-anchor="middle">3</text>
<circle cx="130.0" cy="120" r="15.0" class="symbol unaffected"/>
<text x="130.0" y="150" class="label" text-anchor="middle">4</text>
<rect x="175.0" y="105.0" width="30" height="30" class="symbol affected"/>
<text x="190.0" y="150" class="label" text-anchor="middle">5</text>
<circle cx="250.0" cy="120" r="15.0" class="symbol unaffected"/>
<text x="250.0" y="150" class="label" text-anchor="middle">6</text>
<circle cx="310.0" cy="120" r="15.0" class="symbol affected"/>
<text x="310.0" y="150" class="label" text-anchor="middle">7</text>
<rect x="355.0" y="105.0" width="30" height="30" class="symbol unaffected"/>
<text x="370.0" y="150" class="label" text-anchor="middle">8</text>
<circle cx="70.0" cy="200" r="15.0" class="symbol unaffected"/>
<text x="70.0" y="230" class="label" text-anchor="middle">9</text>
<circle cx="130.0" cy="200" r="15.0" class="symbol unaffected"/>
<text x="130.0" y="230" class="label" text-anchor="middle">10</text>
<circle cx="190.0" cy="200" r="15.0" class="symbol affected"/>
<text x="190.0" y="230" class="label" text-anchor="middle">11</text>
<rect x="235.0" y="185.0" width="30" height="30" class="symbol affected"/>
<text x="250.0" y="230" class="label" text-anchor="middle">12</text>
<rect x="295.0" y="185.0" width="30" height="30" class="symbol affected"/>
<text x="310.0" y="230" class="label" text-anchor="middle">13</text>
<rect x="355.0" y="185.0" width="30" height="30" class="symbol unaffected"/>
<text x="370.0" y="230" class="label" text-anchor="middle">14</text>
<line x1="190.0" y1="40" x2="250.0" y2="40" stroke="black" stroke-width="2"/>
<line x1="220.0" y1="40" x2="220.0" y2="80.0" stroke="black" stroke-width="2"/>
<line x1="220.0" y1="80.0" x2="130.0" y2="120" stroke="black" stroke-width="2"/>
<line x1="220.0" y1="80.0" x2="190.0" y2="120" stroke="black" stroke-width="2"/>
<line x1="220.0" y1="80.0" x2="310.0" y2="120" stroke="black" stroke-width="2"/>
<line x1="70.0" y1="120" x2="130.0" y2="120" stroke="black" stroke-width="2"/>
<line x1="100.0" y1="120" x2="100.0" y2="160.0" stroke="black" stroke-width="2"/>
<line x1="100.0" y1="160.0" x2="70.0" y2="200" stroke="black" stroke-width="2"/>
<line x1="100.0" y1="160.0" x2="130.0" y2="200" stroke="black" stroke-width="2"/>
<line x1="190.0" y1="120" x2="250.0" y2="120" stroke="black" stroke-width="2"/>
<line x1="220.0" y1="120" x2="220.0" y2="160.0" stroke="black" stroke-width="2"/>
<line x1="220.0" y1="160.0" x2="190.0" y2="200" stroke="black" stroke-width="2"/>
<line x1="220.0" y1="160.0" x2="250.0" y2="200" stroke="black" stroke-width="2"/>
<line x1="310.0" y1="120" x2="370.0" y2="120" stroke="black" stroke-width="2"/>
<line x1="340.0" y1="120" x2="340.0" y2="160.0" stroke="black" stroke-width="2"/>
<line x1="340.0" y1="160.0" x2="310.0" y2="200" stroke="black" stroke-width="2"/>
<line x1="340.0" y1="160.0" x2="370.0" y2="200" stroke="black" stroke-width="2"/>
</svg>